<svg width="64" height="66" viewBox="0 0 64 66" fill="none" xmlns="http://www.w3.org/2000/svg">
<path d="M7.50052 58.2914H48.9852L47.0078 52.2328L51.7536 56.0742L56.1039 59.748L64.0135 66V6.80625C63.8089 3.13242 60.4542 0 56.2948 0L7.51415 0.0128906C3.36841 0.0128906 0 3.14531 0 6.81914V51.4852C0 55.3652 3.36841 58.2914 7.50052 58.2914ZM38.1981 15.6234L38.1026 15.6621L38.1435 15.6234H38.1981ZM15.9966 19.1168C21.3287 15.443 26.2654 15.6234 26.2654 15.6234L26.6609 15.9973C20.1287 17.4668 17.183 20.2254 17.183 20.2254C17.183 20.2254 17.974 19.8645 19.3513 19.2973C28.1338 16.0359 37.7344 16.268 46.6259 20.4059C46.6259 20.4059 43.6666 17.8277 37.5435 16.1777L38.089 15.675C38.9345 15.675 43.4212 15.8297 48.2079 19.1426C48.2079 19.1426 53.5673 27.8051 53.5673 38.4527C53.39 38.2465 50.2398 43.0289 42.1256 43.1965C42.1256 43.1965 40.7483 41.727 39.78 40.4508C44.5258 39.1617 46.2986 36.5836 46.2986 36.5836C44.744 37.5117 43.3257 38.066 42.1665 38.6074C40.3937 39.3422 38.6208 39.7031 36.848 40.077C28.4611 41.366 23.7425 39.2133 19.2968 37.4988L17.7694 36.7641C17.7694 36.7641 19.5423 39.3422 24.0971 40.6313C22.897 41.9203 21.7106 43.3898 21.7106 43.3898C13.61 43.2094 10.6507 38.427 10.6507 38.427C10.6644 27.7664 15.9966 19.1168 15.9966 19.1168Z" fill="white"/>
<path d="M38.7166 35.1145C40.7894 35.1145 42.4668 33.4645 42.4668 31.4277C42.4668 29.4039 40.7894 27.7539 38.7166 27.7539V27.7668C36.6573 27.7668 34.9663 29.4168 34.9663 31.4406C34.9663 33.4645 36.6437 35.1145 38.7166 35.1145Z" fill="white"/>
<path d="M25.2835 35.1145C27.3563 35.1145 29.0337 33.4645 29.0337 31.4277C29.0337 29.4039 27.3563 27.7539 25.2971 27.7539L25.2835 27.7668C23.2106 27.7668 21.5332 29.4168 21.5332 31.4406C21.5332 33.4645 23.2106 35.1145 25.2835 35.1145Z" fill="white"/>
</svg>
