<svg width="64" height="60" viewBox="0 0 64 60" fill="none" xmlns="http://www.w3.org/2000/svg">
<path d="M32 0C14.325 0 0 13.7697 0 30.7677C0 44.354 9.1625 55.8857 21.875 59.9457C23.475 60.2392 24.0625 59.2853 24.0625 58.466C24.0625 57.7323 24.0375 55.8001 24.025 53.2321C15.125 55.0909 13.25 49.111 13.25 49.111C11.8 45.5646 9.6875 44.6108 9.6875 44.6108C6.7875 42.7031 9.9125 42.7397 9.9125 42.7397C13.125 42.9476 14.8125 45.907 14.8125 45.907C17.6625 50.6151 22.3 49.2455 24.1375 48.4628C24.425 46.4695 25.25 45.1244 26.1625 44.354C19.05 43.5835 11.5875 40.9421 11.5875 29.1535C11.5875 25.7906 12.825 23.0513 14.875 20.8991C14.5125 20.1164 13.4375 16.9981 15.15 12.7547C15.15 12.7547 17.825 11.9353 23.95 15.9097C26.5125 15.2249 29.225 14.8825 31.95 14.8703C34.675 14.8825 37.3875 15.2249 39.95 15.9097C46.025 11.9353 48.7125 12.7547 48.7125 12.7547C50.4375 16.9858 49.35 20.1164 49.0375 20.8991C51.075 23.0513 52.3125 25.7906 52.3125 29.1535C52.3125 40.9666 44.8375 43.5713 37.7125 44.3295C38.8375 45.2589 39.875 47.1421 39.875 50.0159C39.875 54.137 39.8375 57.4388 39.8375 58.4416C39.8375 59.2487 40.4 60.2147 42.0375 59.8968C54.8375 55.8735 64 44.3417 64 30.7677C64 13.7697 49.675 0 32 0Z" fill="white"/>
</svg>
