<svg width="715" height="191" viewBox="0 0 715 191" fill="none" xmlns="http://www.w3.org/2000/svg">
<path d="M295.279 146C289.923 146 285.302 144.951 281.416 142.853C277.53 140.755 274.589 137.712 272.489 133.726C270.388 129.74 269.338 124.809 269.338 119.039V82.8468H256V66.2718H269.233V46H289.818V66.2718H311.032V82.8468H289.818V116.521C289.818 120.193 290.553 123.13 292.128 125.124C293.704 127.117 296.119 128.166 299.375 128.166C301.055 128.166 302.841 127.956 304.731 127.432C306.621 126.907 308.512 126.278 310.192 125.543L313.868 140.964C311.348 142.433 308.512 143.692 305.361 144.636C302.21 145.475 298.85 146 295.279 146Z" fill="white"/>
<path d="M361.234 146C355.458 146 350.101 144.951 345.27 142.958C340.439 140.965 336.238 138.132 332.667 134.46C329.097 130.789 326.366 126.488 324.476 121.347C322.48 116.312 321.535 110.752 321.535 104.877C321.535 99.1073 322.48 93.7571 324.476 88.7217C326.471 83.6862 329.202 79.3851 332.667 75.7134C336.133 72.0417 340.229 69.2093 344.955 67.1112C349.681 65.0131 354.722 64.0689 360.289 64.0689C365.96 64.0689 371.106 65.0131 375.832 67.0063C380.453 68.9995 384.444 71.727 387.805 75.3987C391.166 79.0704 393.686 83.3715 395.472 88.3021C397.257 93.3375 398.202 98.8975 398.202 105.087V110.122H342.54C343.38 115.892 345.48 120.403 348.841 123.655C352.202 126.907 356.403 128.586 361.444 128.586C365.015 128.586 368.165 127.746 371.106 126.068C374.047 124.39 376.357 121.977 378.248 118.83L396.627 124.704C394.841 129.11 392.216 132.887 388.645 136.034C385.074 139.181 380.978 141.594 376.252 143.272C371.526 145.161 366.59 146 361.234 146ZM360.184 79.9096C355.668 79.9096 351.887 81.3783 348.841 84.3157C345.795 87.253 343.695 91.2394 342.75 96.3798H376.987C376.252 91.2394 374.362 87.253 371.316 84.3157C368.376 81.3783 364.595 79.9096 360.184 79.9096Z" fill="white"/>
<path d="M410.909 143.797V66.2718H429.919L430.654 78.0212C432.649 73.9299 435.275 70.7827 438.636 68.5797C441.996 66.3767 445.882 65.3276 450.398 65.3276C451.764 65.3276 453.129 65.4325 454.494 65.6424C455.86 65.8522 457.12 66.1669 458.17 66.5865L455.965 86.8332C454.914 86.4136 453.759 86.2038 452.709 85.994C451.554 85.8891 450.398 85.7842 449.243 85.7842C443.572 85.7842 439.161 87.5676 436.115 91.0295C433.069 94.4913 431.599 99.4219 431.599 105.821V143.797H410.909Z" fill="white"/>
<path d="M469.303 143.797V66.2719H488.312L488.942 76.2379C491.148 72.5662 494.298 69.524 498.289 67.321C502.28 65.118 506.796 64.0689 511.837 64.0689C517.509 64.0689 522.445 65.4327 526.751 68.0553C531.057 70.7829 534.313 74.5594 536.623 79.5949C538.934 84.6304 540.194 90.5051 540.194 97.219V143.797H519.609V99.8416C519.609 94.4915 518.349 90.1903 515.933 87.1481C513.518 84.1058 510.052 82.5323 505.746 82.5323C502.595 82.5323 499.865 83.2666 497.554 84.6304C495.244 86.099 493.353 87.9873 491.988 90.61C490.623 93.1277 489.887 96.065 489.887 99.3171V143.797H469.303Z" fill="white"/>
<path d="M593.966 146C588.19 146 582.834 144.951 577.898 142.958C572.962 140.86 568.761 138.027 565.085 134.356C561.409 130.684 558.678 126.383 556.683 121.347C554.687 116.312 553.637 110.962 553.637 105.087C553.637 99.2122 554.687 93.7571 556.683 88.8266C558.783 83.896 561.619 79.5949 565.295 75.8183C568.971 72.1466 573.277 69.2093 578.213 67.1112C583.149 65.0131 588.61 64.0689 594.491 64.0689C600.268 64.0689 605.624 65.118 610.56 67.1112C615.496 69.2093 619.697 72.0417 623.373 75.7134C627.049 79.3851 629.779 83.6862 631.775 88.6168C633.77 93.5473 634.821 99.0024 634.821 104.877C634.821 110.752 633.77 116.207 631.775 121.137C629.674 126.173 626.839 130.474 623.163 134.251C619.487 137.922 615.181 140.86 610.245 142.958C605.204 144.951 599.848 146 593.966 146ZM594.176 127.537C597.852 127.537 601.213 126.593 604.154 124.599C607.094 122.606 609.405 119.983 611.085 116.627C612.766 113.27 613.606 109.388 613.606 105.087C613.606 100.786 612.766 96.9043 611.085 93.5473C609.405 90.1904 607.094 87.4628 604.154 85.5745C601.213 83.5813 597.852 82.6372 594.176 82.6372C590.501 82.6372 587.14 83.5813 584.199 85.5745C581.258 87.5677 578.948 90.1904 577.268 93.5473C575.587 96.9043 574.747 100.786 574.747 105.087C574.747 109.388 575.587 113.27 577.268 116.627C578.948 119.983 581.258 122.711 584.199 124.599C587.14 126.488 590.501 127.537 594.176 127.537Z" fill="white"/>
<path d="M672.314 146C668.323 146 664.647 145.37 661.286 144.216C657.925 143.063 655.09 141.384 652.569 139.181C650.049 136.978 648.158 134.46 646.793 131.523C645.428 128.586 644.692 125.334 644.692 121.872C644.692 116.941 646.058 112.64 648.683 108.968C651.309 105.297 655.09 102.359 659.816 100.261C664.647 98.163 670.213 97.114 676.62 97.114C679.875 97.114 682.921 97.4287 685.757 97.9532C688.697 98.5827 691.428 99.4219 694.159 100.471V95.96C694.159 91.554 692.898 87.9872 690.378 85.2597C687.857 82.5321 684.496 81.1684 680.19 81.1684C676.935 81.1684 673.994 82.0076 671.368 83.5812C668.743 85.1548 666.852 87.4627 665.802 90.4L647.423 86.7284C648.473 82.2174 650.679 78.3359 653.829 74.8741C656.98 71.5171 660.866 68.8944 665.487 67.0061C670.108 65.1179 675.044 64.1737 680.505 64.1737C685.547 64.1737 690.063 64.908 694.159 66.4816C698.254 68.0552 701.825 70.2582 704.766 73.1956C707.707 76.1329 710.017 79.5948 711.698 83.5812C713.273 87.5676 714.113 91.9736 714.113 96.9042V143.902H695.734L695.104 134.775C693.003 138.132 690.063 140.86 686.177 142.958C682.291 144.951 677.67 146 672.314 146ZM664.962 120.718C664.962 123.445 666.117 125.753 668.323 127.432C670.528 129.215 673.574 130.054 677.25 130.054C680.505 130.054 683.341 129.32 685.967 127.956C688.487 126.592 690.483 124.704 691.953 122.291C693.423 119.878 694.159 117.256 694.159 114.318V113.584C691.953 112.745 689.748 112.011 687.227 111.486C684.811 110.961 682.291 110.647 679.875 110.647C675.254 110.647 671.578 111.591 668.953 113.374C666.222 115.263 664.962 117.675 664.962 120.718Z" fill="white"/>
<path d="M101.019 1.18326e-05C79.17 -0.0106365 57.9183 7.16596 40.5125 20.433C23.1067 33.7 10.5044 52.3275 4.63186 73.4682C-1.24064 94.6089 -0.0602771 117.1 7.99254 137.503C16.0454 157.906 30.5276 175.099 49.2256 186.454C53.0309 188.774 57.3968 190 61.8479 190H62.174C65.4262 190.018 68.6495 189.388 71.6575 188.146C74.6656 186.904 77.3984 185.075 79.6981 182.765C81.9977 180.455 83.8184 177.709 85.0547 174.688C86.291 171.666 86.9184 168.428 86.9006 165.161V119.395C86.8957 119.141 86.7931 118.899 86.6143 118.72C86.4355 118.54 86.1943 118.437 85.9415 118.432H70.9022C69.0107 118.502 67.1245 118.189 65.3565 117.51C63.5884 116.831 61.9747 115.801 60.6118 114.482C59.2489 113.162 58.1649 111.581 57.4245 109.831C56.684 108.081 56.3024 106.199 56.3024 104.298C56.3024 102.396 56.684 100.515 57.4245 98.7647C58.1649 97.0148 59.2489 95.433 60.6118 94.1135C61.9747 92.7941 63.5884 91.7642 65.3565 91.0855C67.1245 90.4067 69.0107 90.0932 70.9022 90.1634H131.04C132.932 90.0932 134.818 90.4067 136.586 91.0855C138.354 91.7642 139.968 92.7941 141.331 94.1135C142.694 95.433 143.778 97.0148 144.518 98.7647C145.258 100.515 145.64 102.396 145.64 104.298C145.64 106.199 145.258 108.081 144.518 109.831C143.778 111.581 142.694 113.162 141.331 114.482C139.968 115.801 138.354 116.831 136.586 117.51C134.818 118.189 132.932 118.502 131.04 118.432H116.039C115.786 118.437 115.545 118.54 115.367 118.72C115.188 118.899 115.085 119.141 115.08 119.395V165.161C115.126 171.752 117.755 178.059 122.397 182.715C127.04 187.372 133.323 190.003 139.884 190.039H140.21C144.668 190.036 149.038 188.788 152.832 186.435C171.502 175.068 185.958 157.877 193.992 137.486C202.026 117.094 203.198 94.6221 197.329 73.499C191.459 52.3758 178.871 33.7621 161.485 20.4981C144.099 7.23423 122.87 0.0487959 101.038 0.038589L101.019 1.18326e-05ZM30.0428 120.359C26.877 120.363 23.7812 119.423 21.1473 117.659C18.5134 115.894 16.4599 113.384 15.2466 110.447C14.0334 107.51 13.7149 104.277 14.3316 101.157C14.9483 98.0381 16.4725 95.173 18.711 92.9242C20.9496 90.6755 23.802 89.1445 26.9072 88.525C30.0124 87.9055 33.2307 88.2253 36.1548 89.4441C39.0789 90.6628 41.5774 92.7257 43.3339 95.3715C45.0903 98.0173 46.0259 101.127 46.0221 104.307C46.0121 108.548 44.3359 112.613 41.3579 115.619C38.38 118.625 34.341 120.328 30.1195 120.359H30.0428ZM101.019 72.5315C96.109 72.5353 91.3079 71.0761 87.2233 68.3386C83.1388 65.601 79.9542 61.7078 78.0725 57.1519C76.1908 52.5959 75.6965 47.5817 76.6521 42.7435C77.6077 37.9053 79.9703 33.4606 83.441 29.9714C86.9118 26.4823 91.3347 24.1055 96.1503 23.1419C100.966 22.1782 105.958 22.6707 110.495 24.5574C115.032 26.4442 118.909 29.6402 121.638 33.7412C124.366 37.8421 125.823 42.6637 125.823 47.5963C125.782 54.1901 123.156 60.5022 118.512 65.163C113.869 69.8238 107.583 72.4575 101.019 72.4929V72.5315ZM171.708 120.359C168.543 120.359 165.449 119.416 162.818 117.649C160.186 115.882 158.136 113.371 156.925 110.434C155.715 107.496 155.399 104.264 156.018 101.146C156.637 98.0276 158.163 95.1642 160.402 92.9174C162.641 90.6706 165.494 89.1415 168.598 88.5236C171.703 87.9057 174.921 88.2266 177.844 89.4459C180.767 90.6653 183.264 92.728 185.019 95.3734C186.775 98.0188 187.71 101.128 187.706 104.307C187.696 108.565 186.007 112.645 183.008 115.653C180.009 118.662 175.946 120.354 171.708 120.359Z" fill="white"/>
</svg>
