<svg width="63" height="47" viewBox="0 0 63 47" fill="none" xmlns="http://www.w3.org/2000/svg">
<path d="M63 5.55865C60.6621 6.50769 58.1643 7.12908 55.5557 7.43413C58.2381 5.96538 60.2807 3.66057 61.2404 0.88125C58.7426 2.24832 55.9863 3.20865 53.0455 3.75096C50.683 1.43486 47.2992 0 43.6201 0C36.4711 0 30.7125 5.33269 30.7125 11.863C30.7125 12.8007 30.7986 13.7046 31.0078 14.5632C20.2658 14.0887 10.7666 9.3548 4.38047 2.15793C3.26074 3.93173 2.60859 5.96538 2.60859 8.15721C2.60859 12.2697 4.90957 15.9077 8.34258 18.0091C6.26309 17.9752 4.23281 17.4216 2.51016 16.5517C2.51016 16.5856 2.51016 16.6308 2.51016 16.6873C2.51016 22.4493 6.98906 27.2396 12.8584 28.3356C11.8125 28.5954 10.6559 28.731 9.47461 28.731C8.6502 28.731 7.81348 28.6858 7.02598 28.5276C8.69941 33.2276 13.449 36.6735 19.0969 36.7865C14.7041 39.9387 9.11777 41.8481 3.08848 41.8481C2.03027 41.8481 1.00898 41.8029 0 41.6899C5.72168 45.0793 12.5016 47.0113 19.8105 47.0113C43.5832 47.0113 56.577 28.9344 56.577 13.2639C56.577 12.7442 56.5523 12.2358 56.5277 11.7274C59.0871 10.0553 61.2404 7.96514 63 5.55865Z" fill="white"/>
</svg>
